<svg width="16" height="16" viewBox="0 0 16 16" fill="none" xmlns="http://www.w3.org/2000/svg">
<path fill-rule="evenodd" clip-rule="evenodd" d="M8 16C12.4183 16 16 12.4183 16 8C16 3.58172 12.4183 0 8 0C3.58172 0 0 3.58172 0 8C0 12.4183 3.58172 16 8 16ZM8 3.5C8.41421 3.5 8.75 3.83579 8.75 4.25V8.08431L11.3975 9.73899C11.7488 9.95853 11.8555 10.4212 11.636 10.7725C11.4165 11.1237 10.9538 11.2305 10.6025 11.011L7.6025 9.13599C7.38321 8.99894 7.25 8.75859 7.25 8.49999V4.25C7.25 3.83579 7.58579 3.5 8 3.5Z" fill="#A2A2A2"/>
</svg>
