<svg width="24" height="24" viewBox="0 0 24 24" fill="none" xmlns="http://www.w3.org/2000/svg">
<path d="M14.3651 2C14.5718 2 14.7694 2.08533 14.9111 2.23582L19.796 7.42314C19.927 7.56228 20 7.7462 20 7.93732V18.2539C20 19.7724 18.769 21 17.25 21H6.75C5.23121 21 4 19.7688 4 18.25V4.74998C4 3.2312 5.23126 2 6.75004 2H14.3651ZM12.999 3.5H6.75004C6.05967 3.5 5.5 4.05965 5.5 4.74998V18.25C5.5 18.9404 6.05963 19.5 6.75 19.5H17.25C17.9415 19.5 18.5 18.943 18.5 18.2539L18.499 9H14.75C13.8318 9 13.0788 8.29289 13.0058 7.39353L13 7.25L12.999 3.5ZM17.808 7.5L14.499 3.986L14.5 7.25C14.5 7.36835 14.5822 7.46749 14.6927 7.4934L14.75 7.5H17.808Z" fill="#A2A2A2"/>
</svg>
