<svg width="24" height="24" viewBox="0 0 24 24" fill="none" xmlns="http://www.w3.org/2000/svg">
<path d="M17.8875 10.1039L17.9394 10.2046L22.4394 20.7046C22.6025 21.0853 22.4262 21.5262 22.0454 21.6894C21.6964 21.8389 21.2969 21.7032 21.107 21.3863L21.0606 21.2954L19.969 18.75H14.53L13.4394 21.2954C13.2898 21.6444 12.9068 21.8217 12.5508 21.7232L12.4546 21.6894C12.1056 21.5398 11.9283 21.1568 12.0268 20.8008L12.0606 20.7046L16.5606 10.2046C16.8051 9.63413 17.5806 9.60058 17.8875 10.1039ZM9 2.25C9.3797 2.25 9.69349 2.53215 9.74315 2.89823L9.75 3V4.5L13.1617 4.5002C13.1713 4.49989 13.181 4.49977 13.1907 4.49984L15.75 4.5C16.1642 4.5 16.5 4.83579 16.5 5.25C16.5 5.6297 16.2178 5.94349 15.8518 5.99315L15.75 6H13.748L13.6638 6.26879C13.561 6.58673 13.4429 6.92826 13.309 7.28877C12.7989 8.66209 12.1644 10.0359 11.3955 11.323C11.0369 11.9234 10.6563 12.4914 10.2532 13.0219C10.6605 13.4801 11.0723 13.9041 11.4804 14.2931C11.6782 14.4817 11.8642 14.6514 12.0357 14.8018L12.4275 15.1321C12.4395 15.1417 12.4497 15.1497 12.4581 15.1562C12.7861 15.4092 12.8468 15.8801 12.5938 16.2081C12.3408 16.5361 11.8699 16.5968 11.5419 16.3438L11.2308 16.0885C10.994 15.8872 10.7302 15.6503 10.4454 15.3788C10.0596 15.0111 9.67142 14.6148 9.28596 14.1909L9.51417 13.9302C8.34358 15.2936 7.09013 16.4654 5.83537 17.4462C5.48285 17.7218 5.14982 17.9666 4.84145 18.1808L4.37411 18.4945L4.13119 18.6459C3.77447 18.8564 3.31462 18.7379 3.10409 18.3812C2.89357 18.0245 3.01209 17.5646 3.36881 17.3541L3.56715 17.23L3.77803 17.0908C4.11867 16.8618 4.49991 16.5862 4.91159 16.2644C6.06585 15.3622 7.22136 14.2858 8.30258 13.0383C8.2119 12.9248 8.1212 12.8093 8.03099 12.6923C7.25537 11.6861 6.58579 10.7064 6.02318 9.79122L5.74696 9.3321L5.46258 8.83392L5.33282 8.5926C5.14361 8.22413 5.28893 7.77204 5.6574 7.58282C6.02587 7.39361 6.47796 7.53893 6.66718 7.9074L6.82085 8.19007L7.0409 8.57333C7.08092 8.6414 7.12261 8.71151 7.16596 8.78359L7.30103 9.00566C7.83705 9.8776 8.47705 10.814 9.21901 11.7765L9.26586 11.8354C9.55874 11.4312 9.8394 11.0031 10.1078 10.5537C10.8256 9.35221 11.4225 8.05955 11.9029 6.76646C12.0025 6.49825 12.0927 6.24161 12.1736 5.99888L2.25 6C1.83579 6 1.5 5.66421 1.5 5.25C1.5 4.8703 1.78215 4.55651 2.14823 4.50685L2.25 4.5H8.25V3C8.25 2.58579 8.58579 2.25 9 2.25ZM17.25 12.404L15.173 17.25H19.327L17.25 12.404Z" fill="#A2A2A2"/>
</svg>
