<svg width="24" height="24" viewBox="0 0 24 24" fill="none" xmlns="http://www.w3.org/2000/svg">
<path fill-rule="evenodd" clip-rule="evenodd" d="M12 1.24023C12.2576 1.24023 12.5109 1.30658 12.7354 1.43287L20.9854 6.07349C21.2174 6.20398 21.4104 6.39384 21.5448 6.62359C21.6792 6.85334 21.75 7.1147 21.75 7.38086V16.6286C21.75 16.8947 21.6792 17.1561 21.5448 17.3858C21.4104 17.6156 21.2174 17.8054 20.9854 17.9359L12.7354 22.5766C12.5256 22.6946 12.2906 22.7603 12.0504 22.7684C12.0321 22.7689 12.0133 22.7694 11.9944 22.7693L11.955 22.7662L11.8462 22.7613C11.6422 22.7403 11.4442 22.6776 11.2646 22.5766L3.01461 17.9359C2.78263 17.8054 2.58955 17.6156 2.45519 17.3858C2.32082 17.1561 2.25 16.8947 2.25 16.6286V7.38086C2.25 7.12792 2.31396 6.8793 2.43564 6.65804C2.44016 6.65072 2.44434 6.64289 2.44868 6.63511L2.45519 6.62359C2.58955 6.39384 2.78263 6.20398 3.01461 6.07349L11.2646 1.43287C11.4891 1.30658 11.7424 1.24023 12 1.24023ZM3.75 8.21923V16.6286L11.261 20.8522L11.335 12.4422L3.75 8.21923ZM20.25 8.23023L17.345 9.88023L17.3458 14.3026C17.3458 14.7168 17.01 15.0526 16.5958 15.0526C16.1816 15.0526 15.8458 14.7168 15.8458 14.3026L15.845 10.7322L12.835 12.4422L12.761 20.8402L20.25 16.6286V8.23023ZM7.503 5.26923L4.535 6.93823L12.0854 11.1442L15.074 9.44523L7.503 5.26923ZM12 2.74023L9.04 4.40423L16.605 8.57623L19.476 6.94523L12 2.74023Z" fill="#A2A2A2"/>
</svg>
