<svg width="24" height="24" viewBox="0 0 24 24" fill="none" xmlns="http://www.w3.org/2000/svg">
<path fill-rule="evenodd" clip-rule="evenodd" d="M8.25 3C7.83579 3 7.5 3.33579 7.5 3.75V12.75H5.25C4.83579 12.75 4.5 13.0858 4.5 13.5C4.5 13.9142 4.83579 14.25 5.25 14.25H7.5V15.75H5.25C4.83579 15.75 4.5 16.0858 4.5 16.5C4.5 16.9142 4.83579 17.25 5.25 17.25H7.5V20.25C7.5 20.6642 7.83579 21 8.25 21C8.66421 21 9 20.6642 9 20.25V17.25H13.5C13.9142 17.25 14.25 16.9142 14.25 16.5C14.25 16.0858 13.9142 15.75 13.5 15.75H9V14.25H13.875C15.3668 14.25 16.7976 13.6574 17.8525 12.6025C18.9074 11.5476 19.5 10.1168 19.5 8.625C19.5 7.13316 18.9074 5.70242 17.8525 4.64752C16.7976 3.59263 15.3668 3 13.875 3H8.25ZM13.875 12.75H9V4.5H13.875C14.969 4.5 16.0182 4.9346 16.7918 5.70818C17.5654 6.48177 18 7.53098 18 8.625C18 9.71902 17.5654 10.7682 16.7918 11.5418C16.0182 12.3154 14.969 12.75 13.875 12.75Z" fill="#A2A2A2"/>
</svg>
