<svg width="24" height="24" viewBox="0 0 24 24" fill="none" xmlns="http://www.w3.org/2000/svg">
<path fill-rule="evenodd" clip-rule="evenodd" d="M11.6213 11.2904C11.9118 10.7071 12.3386 10.1085 12.8176 9.55685C13.6372 8.61286 14.7173 7.682 15.869 7.03447C17.0029 6.39692 18.315 5.9743 19.5494 6.22999C20.8554 6.50052 21.8619 7.48035 22.4256 9.1788C22.4278 9.18557 22.43 9.19235 22.432 9.19913C22.4353 9.20796 22.4385 9.21689 22.4415 9.22591C22.8761 10.5361 22.8506 11.6709 22.3687 12.5918C21.8914 13.5038 21.0391 14.0664 20.1084 14.3924C19.7175 14.5293 19.2896 14.3234 19.1526 13.9325C19.0157 13.5416 19.2216 13.1137 19.6125 12.9767C20.322 12.7282 20.7964 12.3611 21.0397 11.8963C21.2782 11.4405 21.3672 10.7513 21.0178 9.69826C21.0155 9.69152 21.0134 9.68477 21.0114 9.67801C21.0081 9.66921 21.0049 9.66031 21.002 9.65131C20.5588 8.31605 19.8929 7.83299 19.2451 7.69881C18.5257 7.54977 17.6026 7.7806 16.6041 8.34199C15.6234 8.89339 14.6737 9.70696 13.9503 10.5402C13.5615 10.9881 13.2653 11.41 13.0617 11.774C13.7083 11.8649 14.4124 12.0747 15.0909 12.348C16.2592 12.8185 17.4968 13.5359 18.4826 14.4088C19.4511 15.2665 20.2761 16.3643 20.4108 17.6087C20.5538 18.9295 19.9008 20.1719 18.4346 21.2145C18.4292 21.2183 18.4237 21.2221 18.4183 21.2257C18.4102 21.232 18.4021 21.238 18.3937 21.244C17.3288 22.0013 16.295 22.3313 15.317 22.2332C14.3372 22.135 13.5387 21.6198 12.9214 20.935C12.6441 20.6273 12.6687 20.1531 12.9764 19.8758C13.284 19.5984 13.7583 19.623 14.0356 19.9307C14.4754 20.4186 14.9527 20.6892 15.4666 20.7407C15.9823 20.7924 16.6603 20.6361 17.5244 20.0215C17.5299 20.0177 17.5353 20.0139 17.5408 20.0102C17.5488 20.004 17.557 19.9979 17.5654 19.992C18.7355 19.16 18.987 18.3934 18.9196 17.7701C18.8438 17.0704 18.3433 16.2891 17.4881 15.5318C16.6501 14.7897 15.5658 14.1563 14.5306 13.7394C13.9621 13.5105 13.4474 13.3624 13.0208 13.2862C13.132 13.9198 13.1452 14.6415 13.0895 15.3559C12.9931 16.5931 12.6777 17.9707 12.1332 19.1606C11.5968 20.3329 10.7853 21.4349 9.62911 21.9401C8.41091 22.4724 7.01641 22.2583 5.54882 21.2144C5.5428 21.2101 5.53686 21.2058 5.53101 21.2013C5.52289 21.196 5.51483 21.1905 5.50685 21.1848C4.45466 20.4363 3.80957 19.5813 3.59284 18.6375C3.37526 17.69 3.61963 16.7851 4.08072 16.0015C4.29077 15.6445 4.75046 15.5254 5.10746 15.7354C5.46446 15.9455 5.58358 16.4052 5.37353 16.7622C5.04842 17.3147 4.94573 17.8269 5.05479 18.3018C5.16469 18.7804 5.51994 19.3533 6.37639 19.9626C6.38239 19.9668 6.3883 19.9712 6.39413 19.9756C6.40224 19.9809 6.41028 19.9864 6.41825 19.9921C7.58651 20.823 8.42317 20.8301 9.02851 20.5656C9.69586 20.274 10.3003 19.5612 10.7692 18.5365C11.23 17.5295 11.5093 16.3278 11.594 15.2394C11.6404 14.6444 11.6254 14.1259 11.5692 13.7111C10.9862 14.0152 10.2824 14.254 9.56239 14.425C8.33509 14.7165 6.90459 14.8479 5.58571 14.7092C4.28913 14.5728 2.97084 14.1607 2.12105 13.2383C1.21768 12.2579 0.994911 10.8757 1.55845 9.17824C1.56062 9.1717 1.56287 9.1652 1.56521 9.15876C1.56789 9.14954 1.57075 9.14034 1.5738 9.13115C1.98771 7.88472 2.6411 7.01113 3.51136 6.52902C4.37932 6.04819 5.34641 6.02142 6.26043 6.2337C6.6639 6.32741 6.91502 6.73046 6.82131 7.13393C6.72761 7.53741 6.32456 7.78852 5.92109 7.69482C5.25294 7.53964 4.69071 7.59048 4.23824 7.84114C3.78809 8.09051 3.32997 8.60228 2.99736 9.60389C2.99519 9.61041 2.99295 9.61689 2.99062 9.62331C2.98795 9.63251 2.98509 9.64169 2.98205 9.65086C2.53842 10.9871 2.7901 11.7508 3.22421 12.222C3.71191 12.7513 4.59415 13.0967 5.74259 13.2174C6.8687 13.3359 8.12768 13.224 9.21578 12.9656C9.80236 12.8263 10.2992 12.6539 10.6858 12.4745C10.2206 12.0291 9.78042 11.4576 9.39845 10.8507C8.73434 9.79553 8.16243 8.50001 7.88832 7.22334C7.61863 5.96723 7.61147 4.60191 8.24873 3.51909C8.92125 2.37633 10.1847 1.75 11.9917 1.75C12.0003 1.75 12.0088 1.75014 12.0173 1.75043C12.0258 1.75014 12.0343 1.75 12.0429 1.75C13.3473 1.75 14.379 2.07268 15.115 2.7115C15.8546 3.35344 16.1977 4.22949 16.2913 5.13743C16.3337 5.54947 16.0341 5.91789 15.6221 5.96034C15.21 6.00278 14.8416 5.70317 14.7992 5.29114C14.7336 4.65444 14.5109 4.17335 14.1318 3.84431C13.7491 3.51214 13.1092 3.25 12.0429 3.25C12.0343 3.25 12.0258 3.24986 12.0173 3.24957C12.0088 3.24986 12.0003 3.25 11.9917 3.25C10.5404 3.25 9.86587 3.72866 9.54147 4.27988C9.1818 4.89103 9.11877 5.80866 9.3549 6.90846C9.58661 7.9877 10.0822 9.12105 10.6679 10.0517C10.9923 10.5671 11.3213 10.984 11.6213 11.2904Z" fill="#A2A2A2"/>
</svg>
