<svg width="24" height="24" viewBox="0 0 24 24" fill="none" xmlns="http://www.w3.org/2000/svg">
<path fill-rule="evenodd" clip-rule="evenodd" d="M9.5 5V4C9.5 3.72386 9.72386 3.5 10 3.5H14C14.2761 3.5 14.5 3.72386 14.5 4V5H9.5ZM8 5V4C8 2.89543 8.89543 2 10 2H14C15.1046 2 16 2.89543 16 4V5H18.4942H20H21.25C21.6642 5 22 5.33579 22 5.75C22 6.16421 21.6642 6.5 21.25 6.5H19.8676L18.661 20.1758C18.5699 21.2082 17.7051 22 16.6687 22H7.3313C6.29486 22 5.43014 21.2082 5.33904 20.1758L4.13235 6.5H2.75C2.33579 6.5 2 6.16421 2 5.75C2 5.33579 2.33579 5 2.75 5H4H5.50583H8ZM8 6.5H5.63818L6.83323 20.0439C6.85601 20.3021 7.07219 20.5 7.3313 20.5H16.6687C16.9278 20.5 17.144 20.3021 17.1668 20.0439L18.3618 6.5H16H14.5H9.5H8ZM12 9.25C12.4142 9.25 12.75 9.58579 12.75 10V16C12.75 16.4142 12.4142 16.75 12 16.75C11.5858 16.75 11.25 16.4142 11.25 16V10C11.25 9.58579 11.5858 9.25 12 9.25ZM15.7474 10.0623C15.7818 9.6495 15.4751 9.28699 15.0623 9.25259C14.6495 9.21819 14.287 9.52493 14.2526 9.93772L13.7526 15.9377C13.7182 16.3505 14.0249 16.713 14.4377 16.7474C14.8505 16.7818 15.213 16.4751 15.2474 16.0623L15.7474 10.0623ZM8.93772 9.25259C9.3505 9.21819 9.71301 9.52493 9.74741 9.93772L10.2474 15.9377C10.2818 16.3505 9.97507 16.713 9.56228 16.7474C9.1495 16.7818 8.78699 16.4751 8.75259 16.0623L8.25259 10.0623C8.21819 9.6495 8.52493 9.28699 8.93772 9.25259Z" fill="white"/>
</svg>
