<svg width="20" height="18" viewBox="0 0 20 18" fill="none" xmlns="http://www.w3.org/2000/svg">
<g filter="url(#filter0_d_5448_8420)">
<path fill-rule="evenodd" clip-rule="evenodd" d="M9.02563 2.82908C7.04125 0.893792 3.84042 1.09938 2.08662 3.27701C0.482268 5.29693 0.482268 8.66841 3.25737 10.7774C3.72391 11.1277 4.15528 11.4434 4.55819 11.7383C6.19034 12.9329 7.35555 13.7857 8.49985 15.2072C9.10463 15.9584 9.40702 16.3341 9.65623 16.4281C9.91334 16.5251 10.0764 16.5252 10.3337 16.4287C10.5831 16.3351 10.8858 15.9604 11.4911 15.211C12.64 13.7887 13.8056 12.9357 15.4367 11.742C15.8411 11.446 16.2742 11.1291 16.7426 10.7774C19.5177 8.66841 19.5177 5.29693 17.9134 3.27701C16.1595 1.11184 12.9483 0.89772 10.9607 2.83016C10.5896 3.19099 10.2611 3.62666 9.99277 4.13844C9.72438 3.62659 9.39622 3.1905 9.02563 2.82908ZM16.7433 4.21556C15.3095 2.45318 12.5031 2.58111 11.3212 4.83502L9.99277 7.36854L8.66432 4.83502C7.47824 2.57301 4.68599 2.44625 3.25806 4.21391C2.14886 5.61482 2.10111 8.01213 4.16175 9.58072C4.58741 9.90024 4.99336 10.1968 5.38257 10.4812C7.03748 11.6904 8.38976 12.6784 9.66828 14.2666C9.79638 14.4257 9.90411 14.5593 9.99646 14.6724C10.0887 14.5598 10.1963 14.4268 10.3242 14.2684C11.6068 12.6807 12.9584 11.6933 14.6125 10.4848C15.0032 10.1994 15.4107 9.90164 15.8382 9.58074C17.8981 8.01276 17.8512 5.61671 16.7433 4.21556Z" fill="#CF225D"/>
<path d="M1.89192 3.1202L1.89191 3.12019L1.89086 3.12152C0.204584 5.24458 0.212794 8.77761 3.1061 10.9765L3.10727 10.9774C3.57503 11.3285 4.00743 11.645 4.41012 11.9397L4.41054 11.9401C6.04512 13.1364 7.18424 13.9716 8.30511 15.364L8.31119 15.3715C8.60846 15.7408 8.83919 16.0274 9.02682 16.2327C9.20946 16.4326 9.38224 16.5919 9.56798 16.662C9.71261 16.7166 9.8489 16.7509 9.9947 16.751C10.1405 16.7511 10.2769 16.7171 10.4216 16.6627C10.6074 16.593 10.7803 16.4341 10.9632 16.2347C11.151 16.0299 11.3819 15.744 11.6795 15.3756L11.6856 15.3681C12.8112 13.9747 13.9508 13.1392 15.5844 11.9437L15.5847 11.9435C15.9889 11.6477 16.423 11.33 16.8927 10.9774L16.8939 10.9765C19.7872 8.77761 19.7954 5.24458 18.1091 3.12151L18.1076 3.11965C16.263 0.842425 12.8814 0.614076 10.7865 2.65091C10.4933 2.93589 10.2263 3.26448 9.99283 3.6367C9.75948 3.26437 9.49281 2.9355 9.20018 2.6501C7.10869 0.610362 3.73682 0.829453 1.89192 3.1202ZM9.99679 14.2758C9.95488 14.2239 9.91038 14.1686 9.86302 14.1098C8.56384 12.496 7.18866 11.4912 5.5405 10.287L5.53006 10.2794C5.14092 9.99504 4.73647 9.69952 4.31254 9.38132C2.37016 7.90226 2.42722 5.66705 3.45331 4.37005C4.77125 2.73984 7.34262 2.85272 8.44291 4.95111L9.77136 7.48464L9.99277 7.90689L10.2142 7.48464L11.5426 4.95111C12.6382 2.86177 15.2238 2.7458 16.5482 4.37198C17.5728 5.66927 17.6289 7.903 15.6874 9.38133C15.2617 9.70091 14.8556 9.99757 14.465 10.2829L14.4547 10.2905C12.8072 11.4941 11.4329 12.4981 10.1298 14.1113C10.0827 14.1696 10.0385 14.2243 9.99679 14.2758Z" stroke="#792626" stroke-opacity="0.04" stroke-width="0.5"/>
</g>
<defs>
<filter id="filter0_d_5448_8420" x="-0.499512" y="0.000976562" width="20.999" height="18" filterUnits="userSpaceOnUse" color-interpolation-filters="sRGB">
<feFlood flood-opacity="0" result="BackgroundImageFix"/>
<feColorMatrix in="SourceAlpha" type="matrix" values="0 0 0 0 0 0 0 0 0 0 0 0 0 0 0 0 0 0 127 0" result="hardAlpha"/>
<feOffset/>
<feGaussianBlur stdDeviation="0.5"/>
<feColorMatrix type="matrix" values="0 0 0 0 0 0 0 0 0 0 0 0 0 0 0 0 0 0 0.2 0"/>
<feBlend mode="normal" in2="BackgroundImageFix" result="effect1_dropShadow_5448_8420"/>
<feBlend mode="normal" in="SourceGraphic" in2="effect1_dropShadow_5448_8420" result="shape"/>
</filter>
</defs>
</svg>
