<svg width="20" height="18" viewBox="0 0 20 18" fill="none" xmlns="http://www.w3.org/2000/svg">
<g filter="url(#filter0_d_5448_13832)">
<path fill-rule="evenodd" clip-rule="evenodd" d="M9.02563 2.8281C7.04125 0.892816 3.84042 1.0984 2.08662 3.27603C0.482268 5.29595 0.482268 8.66743 3.25737 10.7765C3.72391 11.1267 4.15528 11.4424 4.55819 11.7373C6.19034 12.9319 7.35555 13.7848 8.49985 15.2062C9.10463 15.9575 9.40702 16.3331 9.65623 16.4271C9.91334 16.5241 10.0764 16.5243 10.3337 16.4277C10.5831 16.3341 10.8858 15.9594 11.4911 15.21C12.64 13.7878 13.8056 12.9348 15.4367 11.741C15.8411 11.4451 16.2742 11.1282 16.7426 10.7765C19.5177 8.66743 19.5177 5.29595 17.9134 3.27603C16.1595 1.11086 12.9483 0.896744 10.9607 2.82918C10.5896 3.19001 10.2611 3.62568 9.99277 4.13747C9.72438 3.62561 9.39622 3.18953 9.02563 2.8281ZM16.7433 4.21459C15.3095 2.4522 12.5031 2.58013 11.3212 4.83404L9.99277 7.36756L8.66432 4.83404C7.47824 2.57203 4.68599 2.44527 3.25806 4.21293C2.14886 5.61384 2.10111 8.01115 4.16175 9.57975C4.58741 9.89926 4.99336 10.1959 5.38257 10.4802C7.03748 11.6894 8.38976 12.6774 9.66828 14.2656C9.79638 14.4247 9.90411 14.5583 9.99646 14.6714C10.0887 14.5588 10.1963 14.4258 10.3242 14.2675C11.6068 12.6797 12.9584 11.6923 14.6125 10.4838C15.0032 10.1984 15.4107 9.90066 15.8382 9.57976C17.8981 8.01178 17.8512 5.61574 16.7433 4.21459Z" fill="white"/>
<path d="M1.89192 3.11922L1.89191 3.11922L1.89086 3.12054C0.204584 5.2436 0.212794 8.77664 3.1061 10.9755L3.10727 10.9764C3.57503 11.3276 4.00743 11.644 4.41012 11.9388L4.41054 11.9391C6.04512 13.1355 7.18424 13.9706 8.30511 15.363L8.31119 15.3705C8.60846 15.7398 8.83919 16.0264 9.02682 16.2318C9.20946 16.4316 9.38224 16.5909 9.56798 16.661C9.71261 16.7156 9.8489 16.7499 9.9947 16.75C10.1405 16.7501 10.2769 16.7161 10.4216 16.6618C10.6074 16.592 10.7803 16.4331 10.9632 16.2337C11.151 16.0289 11.3819 15.743 11.6795 15.3747L11.6856 15.3671C12.8112 13.9737 13.9508 13.1382 15.5844 11.9428L15.5847 11.9425C15.9889 11.6467 16.423 11.329 16.8927 10.9764L16.8939 10.9755C19.7872 8.77664 19.7954 5.2436 18.1091 3.12054L18.1076 3.11867C16.263 0.841448 12.8814 0.6131 10.7865 2.64994C10.4933 2.93492 10.2263 3.2635 9.99283 3.63572C9.75948 3.2634 9.49281 2.93452 9.20018 2.64913C7.10869 0.609386 3.73682 0.828477 1.89192 3.11922ZM9.99679 14.2748C9.95488 14.2229 9.91038 14.1676 9.86302 14.1088C8.56384 12.495 7.18866 11.4902 5.5405 10.286L5.53006 10.2784C5.14092 9.99406 4.73647 9.69854 4.31254 9.38034C2.37016 7.90128 2.42722 5.66607 3.45331 4.36907C4.77125 2.73886 7.34262 2.85174 8.44291 4.95014L9.77136 7.48366L9.99277 7.90591L10.2142 7.48366L11.5426 4.95014C12.6382 2.86079 15.2238 2.74483 16.5482 4.371C17.5728 5.66829 17.6289 7.90202 15.6874 9.38035C15.2617 9.69994 14.8556 9.9966 14.465 10.282L14.4547 10.2895C12.8072 11.4931 11.4329 12.4972 10.1298 14.1104C10.0827 14.1686 10.0385 14.2234 9.99679 14.2748Z" stroke="black" stroke-opacity="0.04" stroke-width="0.5"/>
</g>
<defs>
<filter id="filter0_d_5448_13832" x="-0.499512" y="0" width="20.999" height="18" filterUnits="userSpaceOnUse" color-interpolation-filters="sRGB">
<feFlood flood-opacity="0" result="BackgroundImageFix"/>
<feColorMatrix in="SourceAlpha" type="matrix" values="0 0 0 0 0 0 0 0 0 0 0 0 0 0 0 0 0 0 127 0" result="hardAlpha"/>
<feOffset/>
<feGaussianBlur stdDeviation="0.5"/>
<feColorMatrix type="matrix" values="0 0 0 0 0 0 0 0 0 0 0 0 0 0 0 0 0 0 0.2 0"/>
<feBlend mode="normal" in2="BackgroundImageFix" result="effect1_dropShadow_5448_13832"/>
<feBlend mode="normal" in="SourceGraphic" in2="effect1_dropShadow_5448_13832" result="shape"/>
</filter>
</defs>
</svg>
