<svg width="20" height="20" viewBox="0 0 20 20" fill="none" xmlns="http://www.w3.org/2000/svg">
<g clip-path="url(#clip0_5483_13879)">
<g filter="url(#filter0_d_5483_13879)">
<path fill-rule="evenodd" clip-rule="evenodd" d="M9.02563 3.8281C7.04125 1.89282 3.84042 2.0984 2.08662 4.27603C0.482268 6.29595 0.482268 9.66743 3.25737 11.7765C3.72391 12.1267 4.15528 12.4424 4.55819 12.7373C6.19034 13.9319 7.35555 14.7848 8.49985 16.2062C9.10463 16.9575 9.40702 17.3331 9.65623 17.4271C9.91334 17.5241 10.0764 17.5243 10.3337 17.4277C10.5831 17.3341 10.8858 16.9594 11.4911 16.21C12.64 14.7878 13.8056 13.9348 15.4367 12.741C15.8411 12.4451 16.2742 12.1282 16.7426 11.7765C19.5177 9.66743 19.5177 6.29595 17.9134 4.27603C16.1595 2.11086 12.9483 1.89674 10.9607 3.82918C10.5896 4.19001 10.2611 4.62568 9.99277 5.13747C9.72438 4.62561 9.39622 4.18953 9.02563 3.8281ZM16.7433 5.21459C15.3095 3.4522 12.5031 3.58013 11.3212 5.83404L9.99277 8.36756L8.66432 5.83404C7.47824 3.57203 4.68599 3.44527 3.25806 5.21293C2.14886 6.61384 2.10111 9.01115 4.16175 10.5797C4.58741 10.8993 4.99336 11.1959 5.38257 11.4802C7.03748 12.6894 8.38976 13.6774 9.66828 15.2656C9.79638 15.4247 9.90411 15.5583 9.99646 15.6714C10.0887 15.5588 10.1963 15.4258 10.3242 15.2675C11.6068 13.6797 12.9584 12.6923 14.6125 11.4838C15.0032 11.1984 15.4107 10.9007 15.8382 10.5798C17.8981 9.01178 17.8512 6.61574 16.7433 5.21459Z" fill="white"/>
<path d="M1.89192 4.11922L1.89191 4.11922L1.89086 4.12054C0.204584 6.2436 0.212794 9.77664 3.1061 11.9755L3.10727 11.9764C3.57503 12.3276 4.00743 12.644 4.41012 12.9388L4.41054 12.9391C6.04512 14.1355 7.18424 14.9706 8.30511 16.363L8.31119 16.3705C8.60846 16.7398 8.83919 17.0264 9.02682 17.2318C9.20946 17.4316 9.38224 17.5909 9.56798 17.661C9.71261 17.7156 9.8489 17.7499 9.9947 17.75C10.1405 17.7501 10.2769 17.7161 10.4216 17.6618C10.6074 17.592 10.7803 17.4331 10.9632 17.2337C11.151 17.0289 11.3819 16.743 11.6795 16.3747L11.6856 16.3671C12.8112 14.9737 13.9508 14.1382 15.5844 12.9428L15.5847 12.9425C15.9889 12.6467 16.423 12.329 16.8927 11.9764L16.8939 11.9755C19.7872 9.77664 19.7954 6.2436 18.1091 4.12054L18.1076 4.11867C16.263 1.84145 12.8814 1.6131 10.7865 3.64994C10.4933 3.93492 10.2263 4.2635 9.99283 4.63572C9.75948 4.2634 9.49281 3.93452 9.20018 3.64913C7.10869 1.60939 3.73682 1.82848 1.89192 4.11922ZM9.99679 15.2748C9.95488 15.2229 9.91038 15.1676 9.86302 15.1088C8.56384 13.495 7.18866 12.4902 5.5405 11.286L5.53006 11.2784C5.14092 10.9941 4.73647 10.6985 4.31254 10.3803C2.37016 8.90128 2.42722 6.66607 3.45331 5.36907C4.77125 3.73886 7.34262 3.85174 8.44291 5.95014L9.77136 8.48366L9.99277 8.90591L10.2142 8.48366L11.5426 5.95014C12.6382 3.86079 15.2238 3.74483 16.5482 5.371C17.5728 6.66829 17.6289 8.90202 15.6874 10.3804C15.2617 10.6999 14.8556 10.9966 14.465 11.282L14.4547 11.2895C12.8072 12.4931 11.4329 13.4972 10.1298 15.1104C10.0827 15.1686 10.0385 15.2234 9.99679 15.2748Z" stroke="black" stroke-opacity="0.04" stroke-width="0.5"/>
</g>
<path d="M9.10721 5.60139C7.74998 3.01297 4.51757 2.85772 2.86918 4.89828L2.86612 4.9021C1.59238 6.51083 1.56403 9.23021 3.85896 10.9771L3.86166 10.9792C4.28991 11.3006 4.69805 11.5988 5.08666 11.8828L5.08767 11.8835C6.74681 13.0957 8.04718 14.0487 9.27888 15.5787C9.40683 15.7376 9.51563 15.8726 9.60927 15.9872L9.99588 16.4606L10.3833 15.9879C10.4768 15.8737 10.5855 15.7394 10.7133 15.5812C11.9492 14.0512 13.2492 13.0986 14.9075 11.8871L14.9103 11.8851C15.2998 11.6005 15.709 11.3016 16.1385 10.9792L16.1412 10.9772C18.4352 9.23091 18.4078 6.51295 17.1356 4.90397L17.1312 4.8986C15.4782 2.86662 12.2323 3.0195 10.8785 5.60139L9.99285 7.29041L9.10721 5.60139Z" fill="#CF225D"/>
</g>
<defs>
<filter id="filter0_d_5483_13879" x="-0.499756" y="1" width="20.9995" height="18" filterUnits="userSpaceOnUse" color-interpolation-filters="sRGB">
<feFlood flood-opacity="0" result="BackgroundImageFix"/>
<feColorMatrix in="SourceAlpha" type="matrix" values="0 0 0 0 0 0 0 0 0 0 0 0 0 0 0 0 0 0 127 0" result="hardAlpha"/>
<feOffset/>
<feGaussianBlur stdDeviation="0.5"/>
<feColorMatrix type="matrix" values="0 0 0 0 0 0 0 0 0 0 0 0 0 0 0 0 0 0 0.2 0"/>
<feBlend mode="normal" in2="BackgroundImageFix" result="effect1_dropShadow_5483_13879"/>
<feBlend mode="normal" in="SourceGraphic" in2="effect1_dropShadow_5483_13879" result="shape"/>
</filter>
<clipPath id="clip0_5483_13879">
<rect width="20" height="20" fill="white"/>
</clipPath>
</defs>
</svg>
