<svg width="26" height="23" viewBox="0 0 26 23" fill="none" xmlns="http://www.w3.org/2000/svg">
<path fill-rule="evenodd" clip-rule="evenodd" d="M11.7132 2.03989C8.85752 -0.885302 4.13868 -0.624896 1.56957 2.56661C-0.747835 5.48566 -0.747835 10.3579 3.26065 13.4058C3.93453 13.9119 4.55762 14.3682 5.1396 14.7943C7.81797 16.7556 9.6258 18.0794 11.5078 20.6949C12.0701 21.4763 12.3512 21.8669 12.6221 21.975C12.8841 22.0794 13.0988 22.0797 13.3609 21.9758C13.6321 21.8683 13.9139 21.4785 14.4775 20.6989C16.3686 18.0831 18.177 16.759 20.8531 14.7996C21.4372 14.372 22.0627 13.914 22.7394 13.4058C26.7478 10.3579 26.7478 5.48566 24.4304 2.56661C21.8613 -0.606619 17.127 -0.879977 14.2669 2.04123C13.7802 2.53833 13.3478 3.12793 12.9896 3.8115C12.6313 3.12785 12.1992 2.53773 11.7132 2.03989ZM22.87 3.81764C20.7272 1.18123 16.5265 1.37127 14.761 4.73991L12.9896 8.11991L11.2181 4.73991C9.44694 1.36046 5.2668 1.17034 3.13177 3.81545C1.47409 5.90938 1.41065 9.48312 4.46671 11.8103C5.09382 12.2813 5.6882 12.7157 6.25547 13.1303C8.90177 15.0643 10.958 16.5671 12.9944 19.3386C15.0384 16.5694 17.0933 15.0677 19.7375 13.1354C20.3068 12.7193 20.9035 12.2833 21.5333 11.8103C24.5883 9.48393 24.526 5.91187 22.87 3.81764Z" fill="#A2A2A2"/>
</svg>
