<svg width="24" height="24" viewBox="0 0 24 24" fill="none" xmlns="http://www.w3.org/2000/svg">
<path d="M23.5251 12.2762C23.5251 11.4605 23.459 10.6404 23.3179 9.83789H11.9995V14.4587H18.481C18.2121 15.949 17.3479 17.2674 16.0824 18.1051V21.1034H19.9493C22.22 19.0134 23.5251 15.927 23.5251 12.2762Z" fill="#A2A2A2"/>
<path d="M11.9995 24C15.2358 24 17.9651 22.9374 19.9537 21.1032L16.0868 18.1049C15.011 18.8369 13.6221 19.2513 12.0039 19.2513C8.87339 19.2513 6.21906 17.1393 5.26668 14.2998H1.27637V17.3906C3.31341 21.4427 7.46245 24 11.9995 24Z" fill="#A2A2A2"/>
<path d="M5.26236 14.2995C4.75971 12.8092 4.75971 11.1954 5.26236 9.7051V6.61426H1.27646C-0.425486 10.0049 -0.425486 13.9996 1.27646 17.3903L5.26236 14.2995Z" fill="#A2A2A2"/>
<path d="M11.9995 4.7495C13.7103 4.72304 15.3637 5.36679 16.6027 6.54845L20.0286 3.12251C17.8593 1.08547 14.9801 -0.0344648 11.9995 0.000808639C7.46245 0.000808639 3.31341 2.55814 1.27637 6.61458L5.26227 9.70542C6.21024 6.8615 8.86898 4.7495 11.9995 4.7495Z" fill="#A2A2A2"/>
</svg>
