<svg width="97" height="96" viewBox="0 0 97 96" fill="none" xmlns="http://www.w3.org/2000/svg">
<path fill-rule="evenodd" clip-rule="evenodd" d="M48.4917 4C40.2074 4 33.4917 10.7157 33.4917 19V20H34.2979C33.0918 20.0004 31.912 20.0071 30.89 20.0854C29.6467 20.1805 28.1988 20.4042 26.7075 21.0858C24.6139 22.0426 22.8396 23.5814 21.5963 25.5187C20.7107 26.8986 20.2845 28.3003 20.0145 29.5177C19.7713 30.6139 19.5863 31.9097 19.399 33.2221L19.3745 33.3938L14.1174 70.1938L14.0878 70.4008C13.8432 72.1115 13.6087 73.7514 13.5306 75.1416C13.4461 76.6465 13.494 78.4736 14.2301 80.3607C15.2358 82.939 17.1017 85.0904 19.5118 86.4505C21.2759 87.4461 23.0778 87.752 24.5796 87.8811C25.9668 88.0004 27.6234 88.0002 29.3514 88H67.6319C69.3599 88.0002 71.0165 88.0004 72.4038 87.8811C73.9055 87.752 75.7075 87.4461 77.4716 86.4506C79.8817 85.0904 81.7476 82.939 82.7532 80.3608C83.4893 78.4736 83.5372 76.6465 83.4527 75.1416C83.3746 73.7514 83.1402 72.1115 82.8956 70.401L82.8956 70.4008L77.6692 33.8159L77.5843 33.2219L77.5843 33.2217C77.397 31.9095 77.212 30.6138 76.9689 29.5177C76.6988 28.3003 76.2726 26.8986 75.387 25.5187C74.1438 23.5814 72.3695 22.0426 70.2758 21.0858C68.7846 20.4042 67.3366 20.1805 66.0933 20.0854C65.0713 20.0071 63.8916 20.0004 62.6854 20H63.4917V19C63.4917 10.7157 56.7759 4 48.4917 4ZM57.4917 20V19C57.4917 14.0294 53.4622 10 48.4917 10C43.5211 10 39.4917 14.0294 39.4917 19V20H57.4917Z" fill="#EBEBEC"/>
<path d="M61 47C62.933 47 64.5 45.433 64.5 43.5C64.5 41.567 62.933 40 61 40C59.067 40 57.5 41.567 57.5 43.5C57.5 45.433 59.067 47 61 47Z" fill="#797979"/>
<path d="M36 47C37.933 47 39.5 45.433 39.5 43.5C39.5 41.567 37.933 40 36 40C34.067 40 32.5 41.567 32.5 43.5C32.5 45.433 34.067 47 36 47Z" fill="#797979"/>
<path d="M58.5316 68.9982C58.1531 68.9789 58.1076 68.2796 57.8868 64.76C57.7378 63.0132 57.5828 60.521 56.7135 57.2478C56.2591 55.6346 55.6244 53.7794 54.383 52.0841C53.1411 50.3915 51.2397 48.996 48.4378 49.0278C48.2345 49.0533 47.8224 49.065 47.5331 49.0865C47.2263 49.1479 46.9177 49.1873 46.6233 49.2558C46.0419 49.418 45.4955 49.6241 45.0048 49.9063C44.0191 50.4641 43.2368 51.2454 42.6158 52.0837C41.3745 53.7789 40.7397 55.6341 40.2853 57.2474C39.4156 60.5205 39.261 63.0128 39.112 64.7596C38.8912 68.2805 38.8452 68.9758 38.4672 68.9986C38.142 69.0224 37.6968 68.7768 37.5192 65.3577C37.4737 63.6512 37.4466 61.1338 38.2036 57.5014C38.6176 55.7 39.2132 53.5791 40.6321 51.3664C41.3501 50.2759 42.3265 49.1662 43.6797 48.328C45.0489 47.4844 46.6744 46.9912 48.5615 47.0001C48.9667 47.0288 49.3314 47.031 49.7537 47.0803C50.198 47.1645 50.6708 47.208 51.0691 47.3433C51.4743 47.4705 51.8809 47.5763 52.2493 47.7644C52.6315 47.923 52.9903 48.108 53.3205 48.3285C54.6737 49.1667 55.6501 50.2764 56.3681 51.3669C57.787 53.5796 58.3826 55.7004 58.7966 57.5019C59.5536 61.1343 59.526 63.6517 59.481 65.3581C59.302 68.7769 58.8564 69.0237 58.5316 68.9982Z" fill="#797979"/>
</svg>
