<svg width="16" height="16" viewBox="0 0 16 16" fill="none" xmlns="http://www.w3.org/2000/svg">
<g clip-path="url(#clip0_5428_3812)">
<path fill-rule="evenodd" clip-rule="evenodd" d="M0.16349 0.819014C0 1.13988 0 1.55992 0 2.4V4.6C0 5.44008 0 5.86012 0.16349 6.18099C0.3073 6.46323 0.536771 6.6927 0.819014 6.83651C1.13988 7 1.55992 7 2.4 7H13.6C14.4401 7 14.8601 7 15.181 6.83651C15.4632 6.6927 15.6927 6.46323 15.8365 6.18099C16 5.86012 16 5.44008 16 4.6V2.4C16 1.55992 16 1.13988 15.8365 0.819014C15.6927 0.536771 15.4632 0.3073 15.181 0.16349C14.8601 0 14.4401 0 13.6 0H2.4C1.55992 0 1.13988 0 0.819014 0.16349C0.536771 0.3073 0.3073 0.536771 0.16349 0.819014ZM0.16349 9.81901C0 10.1399 0 10.5599 0 11.4V13.6C0 14.4401 0 14.8601 0.16349 15.181C0.3073 15.4632 0.536771 15.6927 0.819014 15.8365C1.13988 16 1.55992 16 2.4 16H13.6C14.4401 16 14.8601 16 15.181 15.8365C15.4632 15.6927 15.6927 15.4632 15.8365 15.181C16 14.8601 16 14.4401 16 13.6V11.4C16 10.5599 16 10.1399 15.8365 9.81901C15.6927 9.53677 15.4632 9.3073 15.181 9.16349C14.8601 9 14.4401 9 13.6 9H2.4C1.55992 9 1.13988 9 0.819014 9.16349C0.536771 9.3073 0.3073 9.53677 0.16349 9.81901Z" fill="#CF225D"/>
</g>
<defs>
<clipPath id="clip0_5428_3812">
<rect width="16" height="16" fill="white"/>
</clipPath>
</defs>
</svg>
