<svg width="88" height="76" viewBox="0 0 88 76" fill="none" xmlns="http://www.w3.org/2000/svg">
<path d="M37.9984 67.1216C40.3302 70.1434 41.4961 71.6543 42.545 72.0563C43.5874 72.4559 44.3576 72.4567 45.4008 72.0592C46.4505 71.6593 47.6185 70.1519 49.9545 67.1372C57.4103 57.5151 64.7032 53.288 76.964 44.2973C90.5311 34.2261 90.5311 18.1265 82.6876 8.48096C72.5122 -3.78878 52.3028 -2.93769 43.9647 12.5945C35.6265 -2.93769 15.4878 -3.8597 5.31238 8.48096C-2.53113 18.1265 -2.53114 34.2261 11.036 44.2973C23.2902 53.2832 30.5818 57.5105 37.9984 67.1216Z" fill="#EBEBEC"/>
<path d="M53.3781 40.9558C52.8953 41.1081 52.6858 40.898 51.7977 39.834C51.3323 39.3236 50.6487 38.6257 49.4445 37.9733C48.8408 37.6533 48.1033 37.348 47.1935 37.144C46.7368 37.023 46.2596 36.9481 45.7594 36.894C45.3206 36.8043 44.5131 36.8246 44.0005 36.7846C41.5506 36.8172 39.7477 37.3099 38.5559 37.9733C37.3517 38.6257 36.6681 39.3236 36.2026 39.834C35.7415 40.3531 35.4912 40.6916 35.2637 40.8532C35.0455 41 34.8528 41.0172 34.6198 40.9625C34.2002 40.8587 33.6554 40.5522 34.2894 38.9003C34.6396 38.1158 35.3455 36.9413 36.929 35.8902C38.4834 34.809 40.9172 34.0147 43.9999 34C44.8564 34.0479 45.364 34.0215 46.1505 34.1493C46.8768 34.2267 47.5164 34.3833 48.1095 34.5412C49.2927 34.8993 50.2973 35.3417 51.0713 35.8908C52.6548 36.9419 53.3608 38.1165 53.7109 38.9009C54.3437 40.5497 53.8014 40.8655 53.3781 40.9558Z" fill="#797979"/>
<path opacity="0.5" d="M44.0936 39C44.0737 39 44.0526 39 44.032 39C44.0104 39 43.9887 39 43.967 39C41.7868 39 40.5549 39.7838 40.1629 40.4809C39.771 41.2071 40.1624 41.5417 40.5366 41.6916C40.8847 41.8199 41.0146 42 41.2361 42C41.28 42 41.3272 41.9932 41.3805 41.9772C41.673 41.9208 42.3948 41.5953 43.9682 41.5833C45.6699 41.5953 46.2989 41.9202 46.6203 41.9772C46.672 41.9892 46.7186 41.9949 46.7619 41.9949C46.9834 41.9949 47.1317 41.8507 47.4592 41.6825C47.8412 41.5491 48.2276 41.2043 47.8373 40.4815C47.4737 39.7838 46.1512 39 44.0936 39Z" fill="#A2A2A2"/>
<path d="M32 27.1978C32 27.6115 31.8554 27.855 31.1719 28.0133C30.4972 28.2088 29.2465 28.2741 27.1733 29.0026C25.1138 29.7754 24.118 30.5245 23.4924 30.8064C22.8779 31.1174 22.6549 31.024 22.3443 30.7362C22.0497 30.4473 21.8075 30.1216 22.2185 29.4422C22.6356 28.7996 23.6899 27.7038 26.2994 26.7091C28.9414 25.7894 30.4724 25.9525 31.2039 26.1663C31.9537 26.4104 31.9983 26.7841 32 27.1978Z" fill="#797979"/>
<path d="M56 26.7945C56 26.3691 56.1445 26.1293 56.93 26.0226C57.702 25.9588 59.1676 25.9727 61.5513 26.8584C63.9145 27.7952 65.0346 28.7675 65.5842 29.3539C66.1198 29.972 66.0823 30.3052 65.7852 30.5934C65.4913 30.8988 65.2055 31.1209 64.549 30.9277C63.878 30.7577 62.8471 30.0792 60.7008 29.2162C58.5331 28.4193 57.3254 28.2422 56.6979 27.9118C56.064 27.608 55.9979 27.2199 56 26.7945Z" fill="#797979"/>
</svg>
