<svg width="24" height="24" viewBox="0 0 24 24" fill="none" xmlns="http://www.w3.org/2000/svg">
<path fill-rule="evenodd" clip-rule="evenodd" d="M11.9999 1C9.92881 1 8.24988 2.67893 8.24988 4.75V5H8.45144C8.14989 5.00011 7.85496 5.00178 7.59946 5.02134C7.28864 5.04513 6.92664 5.10106 6.55383 5.27144C6.03042 5.51065 5.58685 5.89535 5.27603 6.37967C5.05464 6.72464 4.94808 7.07509 4.88057 7.37943C4.81977 7.65348 4.77354 7.97744 4.72671 8.30552L3.39889 17.6002C3.33775 18.0279 3.27914 18.4378 3.25961 18.7854C3.23848 19.1616 3.25046 19.6184 3.43448 20.0902C3.6859 20.7347 4.15237 21.2726 4.75489 21.6126C5.19592 21.8615 5.64641 21.938 6.02185 21.9703C6.36866 22.0001 6.78281 22.0001 7.21481 22H16.7849C17.2169 22.0001 17.6311 22.0001 17.9779 21.9703C18.3533 21.938 18.8038 21.8615 19.2448 21.6126C19.8474 21.2726 20.3138 20.7347 20.5653 20.0902C20.7493 19.6184 20.7613 19.1616 20.7401 18.7854C20.7206 18.4379 20.662 18.0279 20.6009 17.6002L19.273 8.30547C19.2262 7.97742 19.18 7.65345 19.1192 7.37942C19.0517 7.07508 18.9451 6.72464 18.7237 6.37967C18.4129 5.89535 17.9693 5.51065 17.4459 5.27144C17.0731 5.10106 16.7111 5.04513 16.4003 5.02134C16.1448 5.00178 15.8499 5.00011 15.5483 5H15.7499V4.75C15.7499 2.67893 14.0709 1 11.9999 1ZM14.2499 5V4.75C14.2499 3.50736 13.2425 2.5 11.9999 2.5C10.7572 2.5 9.74988 3.50736 9.74988 4.75V5H14.2499ZM17.4613 7.18984C17.6377 7.46463 17.6899 7.82995 17.7942 8.56058L19.1085 17.7606C19.2435 18.7055 19.311 19.178 19.1678 19.5451C19.0421 19.8674 18.8089 20.1363 18.5076 20.3063C18.1644 20.5 17.6872 20.5 16.7326 20.5H7.2671C6.31258 20.5 5.83532 20.5 5.49214 20.3063C5.19088 20.1363 4.95764 19.8674 4.83193 19.5451C4.68873 19.178 4.75623 18.7055 4.89122 17.7606L6.2055 8.56059C6.30988 7.82995 6.36207 7.46463 6.53842 7.18984C6.69383 6.94767 6.91562 6.75532 7.17732 6.63572C7.4743 6.5 7.84333 6.5 8.58138 6.5H15.4184C16.1564 6.5 16.5254 6.5 16.8224 6.63572C17.0841 6.75532 17.3059 6.94767 17.4613 7.18984Z" fill="#CF225D"/>
</svg>
