<svg width="24" height="24" viewBox="0 0 24 24" fill="none" xmlns="http://www.w3.org/2000/svg">
<path fill-rule="evenodd" clip-rule="evenodd" d="M17.9005 19.4459C20.0935 17.7057 21.5 15.0171 21.5 12C21.5 6.75329 17.2467 2.5 12 2.5C6.75329 2.5 2.5 6.75329 2.5 12C2.5 15.017 3.90643 17.7056 6.09943 19.4458C7.46576 17.9908 9.38986 17.0632 11.5326 17.003C11.6413 17 11.767 17 11.9845 17H11.9999H12.0154C12.2329 17 12.3585 17 12.4673 17.003C14.6101 17.0632 16.5341 17.9908 17.9005 19.4459ZM16.6338 20.2952C15.5443 19.2229 14.0642 18.5484 12.4252 18.5025C12.3403 18.5001 12.2372 18.5 11.9999 18.5C11.7627 18.5 11.6596 18.5001 11.5747 18.5025C9.93563 18.5484 8.45567 19.2229 7.36618 20.2952C8.73693 21.0626 10.3174 21.5 12 21.5C13.6826 21.5 15.263 21.0626 16.6338 20.2952ZM12 23C18.0751 23 23 18.0751 23 12C23 5.92487 18.0751 1 12 1C5.92487 1 1 5.92487 1 12C1 18.0751 5.92487 23 12 23ZM16.2824 10.0992L16.1743 11.6132C16.0179 13.8032 14.1956 15.5 12 15.5C9.80442 15.5 7.98212 13.8032 7.82569 11.6132L7.71755 10.0992C7.54003 7.61396 9.50838 5.5 12 5.5C14.4916 5.5 16.46 7.61396 16.2824 10.0992ZM14.7863 9.99238L14.6781 11.5064C14.5778 12.9114 13.4086 14 12 14C10.5914 14 9.42224 12.9114 9.32188 11.5064L9.21374 9.99237C9.09824 8.37539 10.3789 7 12 7C13.6211 7 14.9018 8.37539 14.7863 9.99238Z" fill="#A2A2A2"/>
</svg>
