<svg width="24" height="24" viewBox="0 0 24 24" fill="none" xmlns="http://www.w3.org/2000/svg">
<path fill-rule="evenodd" clip-rule="evenodd" d="M11.0395 4.8175C8.63844 2.26173 4.5409 2.43656 2.3281 5.12024C0.367217 7.53164 0.367216 11.5565 3.75901 14.0743C4.32922 14.4924 4.85645 14.8694 5.3489 15.2214C7.50222 16.7608 8.99056 17.8248 10.4996 19.7804C11.0825 20.5359 11.374 20.9136 11.6362 21.0141C11.8968 21.114 12.0894 21.1142 12.3502 21.0148C12.6126 20.9148 12.9046 20.538 13.4886 19.7843C15.0044 17.8281 16.4932 16.7639 18.6449 15.2258C19.1392 14.8725 19.6684 14.4942 20.241 14.0743C23.6328 11.5565 23.6328 7.53164 21.6719 5.12024C19.4591 2.45194 15.3481 2.26574 12.9436 4.81841C12.5839 5.20025 12.2624 5.64337 11.9912 6.14863C11.7199 5.64331 11.3987 5.19985 11.0395 4.8175ZM20.5127 6.0722C18.6106 3.78629 14.8659 3.96494 13.3128 6.85811L11.9912 9.31998L10.6696 6.85811C9.11224 3.95715 5.3849 3.7762 3.48868 6.07055C2.0431 7.85262 1.98384 10.8859 4.64968 12.8674C5.18167 13.2574 5.68533 13.6169 6.16545 13.9596C8.34023 15.5118 10.0321 16.7193 11.6871 18.864C11.8073 19.0197 11.9083 19.1504 11.995 19.2611C12.0817 19.1508 12.1828 19.0206 12.3029 18.8655C13.9641 16.7217 15.6551 15.5149 17.8285 13.9638C18.3105 13.6199 18.8161 13.2591 19.3504 12.8673C22.0153 10.8864 21.9569 7.85448 20.5127 6.0722Z" fill="#A2A2A2"/>
</svg>
