<svg width="97" height="96" viewBox="0 0 97 96" fill="none" xmlns="http://www.w3.org/2000/svg">
<g clip-path="url(#clip0_5733_4131)">
<path fill-rule="evenodd" clip-rule="evenodd" d="M48.5 4.95996C49.53 4.95996 50.544 5.22496 51.442 5.73096L84.442 24.293C85.37 24.815 86.142 25.574 86.68 26.493C87.217 27.412 87.5 28.458 87.5 29.522V66.513C87.5 67.577 87.217 68.623 86.679 69.542C86.141 70.461 85.369 71.22 84.441 71.742L51.441 90.305C50.602 90.777 49.662 91.04 48.701 91.072C48.628 91.074 48.553 91.076 48.477 91.075L48.319 91.063L47.884 91.043C47.068 90.959 46.276 90.708 45.558 90.304L12.558 71.741C11.63 71.219 10.858 70.46 10.32 69.541C9.783 68.623 9.5 67.578 9.5 66.513V29.522C9.5 28.51 9.756 27.516 10.243 26.631C10.261 26.602 10.278 26.57 10.295 26.539L10.321 26.493C10.858 25.574 11.631 24.815 12.559 24.293L45.559 5.73096C46.457 5.22496 47.47 4.95996 48.5 4.95996ZM15.5 32.876V66.513L45.544 83.408L45.84 49.768L15.5 32.876ZM81.5 32.92L69.88 39.52L69.883 57.209C69.883 58.866 68.54 60.209 66.883 60.209C65.226 60.209 63.883 58.866 63.883 57.209L63.88 42.928L51.84 49.768L51.544 83.36L81.5 66.513V32.92ZM30.512 21.076L18.64 27.752L48.842 44.576L60.796 37.78L30.512 21.076ZM48.5 10.96L36.66 17.616L66.92 34.304L78.404 27.78L48.5 10.96Z" fill="#EBEBEC"/>
<path d="M39.336 64.785C39.201 64.914 38.978 64.739 37.864 63.767C37.303 63.289 36.508 62.62 35.349 61.812C34.182 60.996 32.682 60.081 30.673 59.236C28.684 58.436 27.152 58.111 25.997 57.98C24.839 57.847 24.044 57.876 23.483 57.905C22.364 57.99 22.154 57.983 22.009 57.74C21.884 57.526 21.814 57.216 22.834 56.871C23.349 56.717 24.145 56.564 25.401 56.63C26.654 56.703 28.38 57 30.674 57.936C31.791 58.406 32.834 58.949 33.702 59.46C34.576 59.988 35.319 60.499 35.947 60.977C37.203 61.934 37.999 62.725 38.514 63.289C39.532 64.439 39.463 64.683 39.336 64.785Z" fill="#797979"/>
<path d="M25.815 51.4043C26.011 51.4853 26.196 51.6873 26.117 52.3443C26.061 52.6553 25.922 53.0913 25.484 53.4283C25.063 53.7623 24.283 53.9973 23.172 53.5483C22.061 53.0713 21.282 52.1813 20.86 51.4893C20.422 50.7783 20.283 50.2183 20.227 49.8563C20.198 49.6773 20.2 49.5203 20.209 49.4053C20.215 49.2803 20.25 49.2503 20.277 49.2033C20.338 49.1263 20.421 49.1293 20.528 49.1693C20.635 49.2093 20.738 49.2583 20.834 49.3713C20.882 49.4283 20.929 49.5013 20.974 49.5973C21.027 49.6853 21.072 49.7753 21.129 49.8973C21.241 50.1463 21.394 50.4923 21.684 50.9343C21.978 51.3633 22.457 51.9143 23.17 52.2253C23.883 52.5133 24.362 52.3663 24.656 52.1863C24.946 51.9913 25.099 51.7763 25.211 51.6243C25.431 51.3103 25.588 51.3013 25.815 51.4043Z" fill="#797979"/>
<path d="M40.816 57.7688C41.012 57.8498 41.197 58.0478 41.118 58.6818C41.062 58.9818 40.923 59.4008 40.485 59.7208C40.064 60.0378 39.284 60.2538 38.173 59.8038C37.062 59.3278 36.283 58.4558 35.861 57.7818C35.423 57.0878 35.284 56.5448 35.228 56.1938C35.199 56.0198 35.201 55.8678 35.21 55.7578C35.216 55.6368 35.251 55.6088 35.278 55.5638C35.339 55.4908 35.422 55.4938 35.529 55.5338C35.636 55.5738 35.739 55.6228 35.835 55.7338C35.883 55.7898 35.93 55.8608 35.975 55.9538C36.028 56.0398 36.073 56.1268 36.13 56.2458C36.242 56.4888 36.395 56.8248 36.685 57.2568C36.979 57.6758 37.458 58.2148 38.171 58.5258C38.884 58.8138 39.363 58.6788 39.657 58.5088C39.948 58.3248 40.1 58.1188 40.212 57.9738C40.433 57.6718 40.589 57.6658 40.816 57.7688Z" fill="#797979"/>
<path d="M30.683 60.5026C28.743 59.7256 27.767 59.7276 27.305 59.8296C26.843 59.9506 26.891 60.1956 26.984 60.4266C27.057 60.6016 27.13 60.7076 27.351 60.7976C27.435 60.8316 27.541 60.8636 27.677 60.8956C28.159 61.0236 29.051 61.1536 30.663 61.7946C32.316 62.4766 33.178 63.0556 33.669 63.3206C33.805 63.3976 33.911 63.4516 33.997 63.4866C34.217 63.5756 34.295 63.5336 34.361 63.4146C34.457 63.2646 34.503 63.0616 34.041 62.5696C33.587 62.0986 32.582 61.2936 30.683 60.5026Z" fill="#A2A2A2"/>
</g>
<defs>
<clipPath id="clip0_5733_4131">
<rect width="96" height="96" fill="white" transform="translate(0.5)"/>
</clipPath>
</defs>
</svg>
